# xmcd
#
# Track frame offsets:
#	150
#	12851
#	24308
#	34505
#	45776
#	54517
#	63928
#	75182
#	87315
#	97643
#	107536
#	118855
#	131068
#	142074
#	154133
#	167493
#	180108
#	191230
#	203456
#	215325
#	228147
#	238369
#	251701
#	263607
#	275817
#	287921
#
# Disc length: 3996 seconds
#
# Revision: 0
# Processed by: cddbd v1.5.2PL0 Copyright (c) Steve Scherf et al.
# Submitted via: EasyCDDAExtractor 11.5.3.1
#
DISCID=530f9a1a
DTITLE=Various Artist - Please Don't Freeze - Early Black Rock 'N Roll, Vol. 
DTITLE=3
DYEAR=2013
DGENRE=Rock and Roll
TTITLE0=Ike and Tina Turner - I Idolize You
TTITLE1=Ruth Brown - Sweet Baby Of Mine
TTITLE2=Bo Diddley - (Extra Read All About It) Ben
TTITLE3=Elmore James - Rollin# And Tumblin'
TTITLE4=LaVern Baker - Love Me Right
TTITLE5=Percy Mayfield - Louisiana
TTITLE6=Donnie Elbert - Wild Child
TTITLE7=Otis Blackwell - Daddy Rollin' Stone
TTITLE8=Eddie Jones (aka Guitar Slim) - You Give Me Nothin' But the Blues
TTITLE9=Titus Turner - Big Mary's
TTITLE10=Sonny Boy "Jeff" Williamson - Pretty Lil Thing
TTITLE11=Little Willie John - Spasms
TTITLE12=John Lee Hooker - I Need Some Money
TTITLE13=Dickie Thompson and His Orchestra - Thirteen Women and One Man
TTITLE14=Ruth Brown - Mama, He Treats Your Daughter Mean
TTITLE15=The Ravens - My Baby's Gone
TTITLE16=Little Margie - Yes it's You (Take 2)
TTITLE17=Howlin' Wolf - My Baby Told Me
TTITLE18=Otis Rush - Homework
TTITLE19=Bo Diddley - Hush Your Mouth
TTITLE20=Arthur Alexander - Sally Sue Brown
TTITLE21=Johnny "Guitar" Watson - Broke and Lonely
TTITLE22=Jimmy Reed - Bright Lights, Big City
TTITLE23=Muddy Waters - Can't Be Satisfied
TTITLE24=John Lee Hooker - How Can You Do it
TTITLE25=Terry Timmons - Got Nobody to Love
EXTD=
EXTT0=
EXTT1=
EXTT2=
EXTT3=
EXTT4=
EXTT5=
EXTT6=
EXTT7=
EXTT8=
EXTT9=
EXTT10=
EXTT11=
EXTT12=
EXTT13=
EXTT14=
EXTT15=
EXTT16=
EXTT17=
EXTT18=
EXTT19=
EXTT20=
EXTT21=
EXTT22=
EXTT23=
EXTT24=
EXTT25=
PLAYORDER=
